<svg aria-hidden="true" style="position: absolute; width: 0; height: 0; overflow: hidden;" version="1.1" xmlns="http://www.w3.org/2000/svg" xmlns:xlink="http://www.w3.org/1999/xlink">
<defs>
<symbol id="icon-antenna" viewBox="0 0 40 40">
<path fill="#2e2f42" style="fill: var(--color2, #2e2f42)" d="M38.466 27.622l-10.554-10.631 1.171-5.769c0.303 0.117 0.624 0.179 0.948 0.181h0.008c0.009 0 0.021 0 0.032 0 1.49 0 2.699-1.208 2.699-2.699s-1.208-2.699-2.699-2.699c-1.49 0-2.699 1.208-2.699 2.699 0 0.324 0.057 0.635 0.162 0.924l-0.006-0.019-6.2 0.756-10.114-10.166c-0.12-0.122-0.286-0.198-0.47-0.2h-0c-0.175 0.001-0.342 0.071-0.467 0.194l-1.891 1.88c-0.121 0.121-0.195 0.287-0.195 0.472s0.075 0.351 0.195 0.472v0l1.018 1.031c-1.429 2.578-2.269 5.652-2.269 8.923 0 5.132 2.070 9.781 5.421 13.157l-0.001-0.001c0.052 0.051 0.114 0.092 0.182 0.122-0.040 0.205-0.064 0.441-0.065 0.683v7.735h-8c-1.84 0.002-3.332 1.493-3.334 3.333v1.333c0 0.369 0.299 0.667 0.667 0.667h30.667c0.368 0 0.667-0.299 0.667-0.667v-1.333c-0.002-1.84-1.494-3.331-3.334-3.333h-8v-3.427c1.253 0.262 2.53 0.397 3.811 0.4 3.225-0.004 6.256-0.829 8.896-2.278l-0.096 0.048 1.023 1.029c0.124 0.126 0.293 0.199 0.471 0.2 0.175-0.001 0.343-0.071 0.466-0.194l1.891-1.881c0.121-0.121 0.195-0.287 0.195-0.471s-0.075-0.351-0.195-0.471v0zM29.1 7.791c0.241-0.239 0.573-0.387 0.94-0.387 0.736 0 1.333 0.597 1.333 1.333s-0.597 1.333-1.333 1.333c-0 0-0 0-0 0h-0.004c-0.733-0.004-1.327-0.599-1.327-1.333 0-0.37 0.15-0.704 0.393-0.946l0-0h-0.002zM27.531 12.172l-0.748 3.681-1.469-1.478 2.218-2.204zM26.773 11.045l-2.4 2.386-1.856-1.867 4.256-0.519zM30.005 36c1.105 0 2 0.895 2 2v0 0.667h-29.333v-0.667c0-1.105 0.895-2 2-2h25.333zM20.672 33.333v1.334h-6.667v-1.334h6.667zM14.005 32v-5.067c0-1.617 1.496-2.933 3.333-2.933s3.334 1.316 3.334 2.933v5.067h-6.667zM22.005 29.88v-2.947c0-2.353-2.094-4.266-4.666-4.266-0.022-0-0.048-0.001-0.074-0.001-1.691 0-3.175 0.883-4.017 2.214l-0.012 0.019c-2.95-3.102-4.764-7.308-4.764-11.937 0-2.893 0.708-5.62 1.961-8.018l-0.046 0.096 23.253 23.386c-2.278 1.184-4.974 1.878-7.833 1.878-1.348 0-2.661-0.154-3.92-0.447l0.117 0.023zM36.116 29.026l-26.321-26.476 0.944-0.94 9.919 9.975c0.004 0 0.007 0.008 0.012 0.012l16.393 16.489-0.946 0.94z"></path>
<path fill="#4d5ae5" style="fill: var(--color1, #4d5ae5)" d="M17.344 25.333h-0.006c-0.001 0-0.002 0-0.003 0-1.105 0-2 0.895-2 2 0 1.103 0.894 1.998 1.997 2h0.006c0.001 0 0.002 0 0.003 0 1.105 0 2-0.895 2-2 0-1.103-0.894-1.998-1.997-2h-0zM17.811 27.806c-0.12 0.119-0.286 0.193-0.469 0.193-0.368 0-0.667-0.299-0.667-0.667 0-0.001 0-0.002 0-0.003v0c0.002-0.365 0.298-0.661 0.663-0.663h0c0.367 0.002 0.663 0.3 0.663 0.667 0 0.185-0.075 0.352-0.196 0.473l-0 0h0.006z"></path>
</symbol>
<symbol id="icon-astronaut" viewBox="0 0 40 40">
<path fill="#4d5ae5" style="fill: var(--color1, #4d5ae5)" d="M39.968 5.655c-0.080-0.239-0.284-0.415-0.534-0.453l-0.004-0-2.389-0.348-1.069-2.164c-0.224-0.456-0.971-0.456-1.195 0l-1.069 2.164-2.388 0.348c-0.325 0.048-0.572 0.325-0.572 0.659 0 0.187 0.077 0.356 0.201 0.477l0 0 1.728 1.684-0.408 2.379c-0.042 0.25 0.060 0.502 0.265 0.652 0.208 0.151 0.478 0.169 0.703 0.051l2.136-1.123 2.136 1.123c0.090 0.048 0.196 0.076 0.309 0.076 0.369 0 0.667-0.299 0.667-0.668 0-0.039-0.003-0.077-0.010-0.115l0.001 0.004-0.407-2.379 1.729-1.684c0.124-0.122 0.201-0.291 0.201-0.478 0-0.073-0.012-0.144-0.034-0.21l0.001 0.005zM36.889 7.314c-0.156 0.152-0.229 0.374-0.191 0.59l0.239 1.393-1.251-0.657c-0.090-0.049-0.197-0.077-0.311-0.077s-0.221 0.029-0.314 0.079l0.004-0.002-1.251 0.657 0.239-1.393c0.006-0.034 0.009-0.073 0.009-0.112 0-0.187-0.077-0.356-0.201-0.478l-0-0-1.012-0.987 1.399-0.203c0.218-0.031 0.405-0.168 0.502-0.365l0.625-1.266 0.626 1.266c0.097 0.197 0.285 0.334 0.503 0.365l1.398 0.203-1.011 0.987zM32.667 25.652h-1.334v1.334h1.334v-1.334zM32.667 28.319h-1.334v1.334h1.334v-1.334z"></path>
<path fill="#4d5ae5" style="fill: var(--color1, #4d5ae5)" d="M34 26.986h-1.333v1.333h1.333v-1.333zM31.334 26.986h-1.334v1.333h1.334v-1.333zM28 32.986h-1.333v1.333h1.333v-1.333zM28 35.653h-1.333v1.333h1.333v-1.333zM29.334 34.319h-1.334v1.334h1.334v-1.334z"></path>
<path fill="#4d5ae5" style="fill: var(--color1, #4d5ae5)" d="M26.667 34.319h-1.334v1.334h1.334v-1.334zM20 30.319h-1.333v1.334h1.333v-1.334zM20 32.986h-1.333v1.333h1.333v-1.333zM21.333 31.653h-1.333v1.333h1.333v-1.333zM18.667 31.653h-1.334v1.333h1.334v-1.333zM7.333 7.652h-1.333v1.333h1.333v-1.333zM7.333 10.319h-1.333v1.334h1.333v-1.333zM8.666 8.986h-1.333v1.334h1.333v-1.334zM6 8.986h-1.334v1.334h1.334v-1.334z"></path>
<path fill="#2e2f42" style="fill: var(--color2, #2e2f42)" d="M30.894 17.699c-0.35-0.471-0.873-0.796-1.474-0.88l-0.012-0.001c-0.095-0.014-0.205-0.023-0.317-0.023-0.514 0-0.987 0.174-1.363 0.467l0.005-0.004-1.565 1.199-2.372 1.772-1.698-0.676c3.026-1.358 5.142-4.385 5.142-7.9 0-4.779-3.903-8.666-8.701-8.666s-8.702 3.887-8.702 8.666c0 1.732 0.518 3.343 1.4 4.698l-3.461-0.030c-0.011 0-0.019 0.006-0.029 0.006-0.070 0.003-0.136 0.017-0.198 0.040l0.004-0.001c-0.016 0.006-0.032 0.009-0.048 0.017-0.008 0.003-0.016 0.004-0.024 0.008l-4.042 1.996-2.367 1.139c-0.030 0.014-0.056 0.028-0.081 0.045l0.002-0.001c-0.602 0.405-0.993 1.083-0.993 1.853 0 0.371 0.091 0.72 0.251 1.028l-0.006-0.012c0.275 0.536 0.744 0.931 1.32 1.112 0.201 0.066 0.432 0.104 0.671 0.104 0.385 0 0.747-0.098 1.063-0.27l-0.012 0.006 1.735-0.922 2.83-1.462 1.696-0.009-6.803 6.769c0 0.001-0.001 0.001-0.002 0.002l-1.673 1.666c-0.378 0.374-0.613 0.893-0.613 1.466 0 0.002 0 0.004 0 0.007v-0c0 0.556 0.217 1.079 0.613 1.473 0.406 0.404 0.94 0.606 1.474 0.606 0.535 0 1.068-0.202 1.475-0.606l1.643-1.636 2.176-1.625 1.126 1.121-3.877 3.861c-0.378 0.374-0.613 0.893-0.613 1.466 0 0.002 0 0.004 0 0.006v-0c0 0.556 0.218 1.079 0.613 1.474 0.406 0.404 0.941 0.606 1.475 0.606s1.069-0.203 1.475-0.606l4.353-4.333c0-0.001 0-0.002 0.001-0.002l1.262-1.25-0.005-0.004c0.008-0.008 0.019-0.011 0.027-0.019l6.457-7.073 4.339 0.617c0.025 0.003 0.055 0.005 0.085 0.005 0.088 0 0.171-0.017 0.248-0.048l-0.004 0.002c0.022-0.008 0.041-0.019 0.063-0.029 0.024-0.012 0.049-0.019 0.071-0.034l4.017-2.667c0.015-0.010 0.023-0.026 0.037-0.037 0.016-0.012 0.036-0.017 0.050-0.031l1.59-1.489c0.434-0.407 0.704-0.984 0.704-1.624 0-0.5-0.165-0.962-0.444-1.334l0.004 0.006zM2.662 22.212c-0.216 0.116-0.462 0.139-0.697 0.065-0.368-0.116-0.631-0.454-0.631-0.854 0-0.295 0.143-0.556 0.363-0.719l0.002-0.002 1.643-0.79 0.395 1.156 0.166 0.485-1.241 0.659zM7.034 19.928l-1.936 1-0.319-0.934-0.229-0.671 2.533-1.25-0.049 1.854zM25.909 11.652c0 1.148-0.274 2.231-0.749 3.199l-5.227-2.374c-0.054-0.719-0.428-1.341-0.978-1.73l-0.007-0.005 1.83-6.075c2.972 0.944 5.131 3.717 5.131 6.984zM11.173 11.652c0-4.044 3.306-7.334 7.368-7.334 0.316 0 0.625 0.027 0.931 0.066l-1.79 5.942c-0.024 0-0.047-0.007-0.071-0.007-0 0-0.001 0-0.001 0-1.29 0-2.336 1.044-2.339 2.333v0c0.004 1.289 1.050 2.333 2.339 2.333 0 0 0.001 0 0.001 0h-0c0.868 0 1.618-0.479 2.023-1.181l4.828 2.194c-1.344 1.808-3.494 2.987-5.921 2.987-4.063 0-7.368-3.291-7.368-7.334zM18.618 12.652c0 0.551-0.452 1-1.008 1-0.001 0-0.002 0-0.003 0-0.553 0-1.002-0.447-1.005-1v-0c0-0.551 0.452-1 1.008-1s1.008 0.449 1.008 1zM3.081 31.433c-0.137 0.136-0.326 0.219-0.534 0.219s-0.396-0.083-0.533-0.218l0 0c-0.136-0.135-0.221-0.321-0.221-0.528s0.084-0.393 0.22-0.528l0-0 1.203-1.198 1.064 1.059-1.198 1.194zM7.098 36.099c-0.137 0.136-0.326 0.22-0.535 0.22s-0.397-0.084-0.534-0.219l0 0c-0.136-0.135-0.22-0.321-0.22-0.528s0.084-0.393 0.22-0.528l0-0 1.204-1.199 1.065 1.059-1.2 1.194zM11.451 31.764l-0.002 0.001-2.206 2.2-1.064-1.059 2.204-2.195s0.001 0 0.002-0.001c0.050-0.050 0.081-0.11 0.112-0.169 0.008-0.018 0.025-0.033 0.033-0.050 0.021-0.052 0.024-0.107 0.031-0.161 0.004-0.031 0.018-0.059 0.018-0.091 0-0.044-0.016-0.088-0.025-0.132-0.008-0.040-0.008-0.081-0.023-0.119-0.025-0.063-0.069-0.118-0.114-0.172-0.012-0.015-0.017-0.034-0.031-0.047h-0.001l-0.001-0.002-2.009-2c-0.021-0.021-0.049-0.030-0.072-0.048-0.032-0.026-0.067-0.050-0.105-0.070l-0.003-0.002c-0.033-0.016-0.072-0.030-0.113-0.040l-0.004-0.001c-0.037-0.012-0.081-0.021-0.126-0.025l-0.003-0c-0.008-0-0.017-0.001-0.026-0.001-0.033 0-0.065 0.002-0.097 0.007l0.004-0c-0.048 0.004-0.093 0.013-0.135 0.026l0.005-0.001c-0.045 0.016-0.084 0.035-0.12 0.058l0.003-0.002c-0.025 0.014-0.053 0.019-0.076 0.036l-2.217 1.655-1.126-1.121 2.999-2.983 5.45 5.361-1.159 1.149zM19.974 22.992c-0.019-0.003-0.037 0.005-0.056 0.004-0.010-0.001-0.021-0.001-0.032-0.001-0.039 0-0.078 0.003-0.115 0.010l0.004-0.001c-0.038 0.006-0.074 0.014-0.111 0.026-0.046 0.017-0.086 0.037-0.123 0.060l0.002-0.001c-0.037 0.023-0.071 0.047-0.104 0.077-0.016 0.014-0.036 0.021-0.050 0.036l-5.873 6.433-5.41-5.321 3.541-3.523c0.12-0.121 0.195-0.287 0.195-0.471 0-0.369-0.299-0.668-0.668-0.668-0.001 0-0.001 0-0.002 0h0l-2.773 0.016 0.034-2.009 3.88 0.033c1.579 1.621 3.784 2.626 6.223 2.626 0.001 0 0.003 0 0.004 0h-0c0.547 0 1.080-0.056 1.599-0.153 0.050 0.040 0.099 0.081 0.162 0.106l3.012 1.2 0.413 2.054-3.754-0.534zM25.026 23.216l-0.392-1.948 1.808-1.35 1.184 1.571-2.6 1.727zM29.718 19.677l-1.047 0.981-1.164-1.546 1.039-0.796c0.194-0.15 0.438-0.21 0.678-0.179 0.242 0.034 0.455 0.16 0.6 0.355 0.271 0.365 0.225 0.874-0.106 1.184z"></path>
<path fill="#2e2f42" style="fill: var(--color2, #2e2f42)" d="M17.003 23.18l-2.679-2.667c-0.12-0.12-0.287-0.194-0.47-0.194s-0.35 0.074-0.47 0.194l-2.678 2.667c-0.121 0.121-0.195 0.288-0.195 0.473s0.075 0.352 0.195 0.473l-0-0 2.678 2.666c0.12 0.12 0.287 0.194 0.47 0.194s0.35-0.074 0.47-0.194l2.679-2.666c0.121-0.121 0.197-0.288 0.197-0.473s-0.075-0.352-0.197-0.473l-0-0zM13.854 25.379l-1.733-1.726 1.733-1.726 1.734 1.726-1.734 1.726zM21.455 6.339l-0.322 1.294c0.089 0.022 2.172 0.565 2.172 2.686h1.333c0-2.521-2.082-3.707-3.183-3.981zM24.639 11.652h-1.333v1.334h1.333v-1.334z"></path>
</symbol>
<symbol id="icon-clock" viewBox="0 0 40 40">
<path fill="#2e2f42" style="fill: var(--color2, #2e2f42)" d="M39.121 19.126c-0.002-10.565-8.569-19.128-19.135-19.126-10.565 0.002-19.128 8.569-19.126 19.135 0.002 8.485 5.528 15.679 13.177 18.182l0.135 0.038c0.075 0.024 0.154 0.036 0.233 0.036 0.151 0 0.299-0.041 0.428-0.117 0.169-0.1 0.295-0.259 0.354-0.446l4.831-15.312c1.317-0.005 2.383-1.074 2.383-2.391 0-1.321-1.071-2.391-2.391-2.391-0.379 0-0.737 0.088-1.056 0.245l0.014-0.006-6.383-6.383c-0.144-0.144-0.343-0.233-0.563-0.233-0.44 0-0.797 0.357-0.797 0.797 0 0.22 0.089 0.419 0.234 0.564v0l6.379 6.386c-0.151 0.301-0.239 0.656-0.239 1.032 0 0.752 0.354 1.421 0.904 1.85l0.005 0.004-4.603 14.591c-9.098-3.351-13.756-13.442-10.404-22.54 3.351-9.096 13.443-13.756 22.54-10.404s13.755 13.443 10.404 22.54c-1.681 4.476-5.005 8.007-9.218 9.922l-0.11 0.045-0.497-2.343c-0.079-0.363-0.398-0.632-0.78-0.632-0.204 0-0.39 0.077-0.531 0.203l0.001-0.001-4.796 4.282c-0.165 0.147-0.268 0.359-0.268 0.596 0 0.354 0.231 0.655 0.551 0.758l0.006 0.002 6.123 1.954c0.073 0.024 0.157 0.038 0.244 0.038 0.44 0 0.797-0.357 0.797-0.797 0-0.059-0.006-0.116-0.019-0.172l0.001 0.005-0.489-2.299c6.91-2.968 11.661-9.715 11.661-17.571 0-0.014 0-0.028-0-0.043v0.002zM19.99 18.329c0.44 0 0.797 0.357 0.797 0.797s-0.357 0.797-0.797 0.797v0c-0.44 0-0.797-0.357-0.797-0.797s0.357-0.797 0.797-0.797v0zM22.616 36.909l2.73-2.435 0.754 3.55-3.484-1.115z"></path>
<path fill="#4d5ae5" style="fill: var(--color1, #4d5ae5)" d="M19.193 3.981v1.594c0 0.44 0.357 0.797 0.797 0.797s0.797-0.357 0.797-0.797v-1.594c-0.017-0.427-0.368-0.766-0.797-0.766s-0.779 0.339-0.797 0.764l-0 0.002zM4.845 18.329c-0.44 0-0.797 0.357-0.797 0.797s0.357 0.797 0.797 0.797h1.594c0.44 0 0.797-0.357 0.797-0.797s-0.357-0.797-0.797-0.797h-1.594zM35.135 19.924c0.44 0 0.797-0.357 0.797-0.797s-0.357-0.797-0.797-0.797h-1.594c-0.427 0.017-0.766 0.368-0.766 0.797s0.339 0.779 0.764 0.797l0.002 0h1.594z"></path>
</symbol>
<symbol id="icon-diagram" viewBox="0 0 40 40">
<path fill="#4d5ae5" style="fill: var(--color1, #4d5ae5)" d="M18.657 18.706h1.332v5.996h-1.332v-5.996zM23.988 21.371h1.332v3.331h-1.332v-3.331zM13.326 23.37h1.333v1.332h-1.333v-1.332zM9.328 22.704h1.333v1.999h-1.333v-1.999z"></path>
<path fill="#2e2f42" style="fill: var(--color2, #2e2f42)" d="M1.999 35.364h31.983c0 0 0 0 0.001 0 1.104 0 1.999-0.895 1.999-1.999v0-2.666c0-1.104-0.895-1.999-1.999-1.999-0 0-0 0-0.001 0h-0.666v-16.617l3.785-3.585c0.259 0.131 0.565 0.207 0.889 0.207 1.11 0 2.010-0.9 2.010-2.010s-0.9-2.010-2.010-2.010c-1.11 0-2.010 0.9-2.010 2.010 0 0.308 0.069 0.6 0.193 0.861l-0.005-0.012-2.852 2.703v-1.537c0-1.104-0.895-1.999-1.999-1.999v0h-26.652c-0 0-0 0-0.001 0-1.104 0-1.999 0.895-1.999 1.999 0 0 0 0 0 0.001v-0 19.989h-0.666c-1.104 0-1.999 0.895-1.999 1.999 0 0 0 0 0 0.001v-0 2.666c0 1.104 0.895 1.999 1.999 1.999v0zM37.98 6.046c0.368 0 0.667 0.298 0.667 0.667s-0.298 0.667-0.667 0.667v0c-0.368 0-0.667-0.298-0.667-0.667s0.298-0.667 0.667-0.667v0zM3.998 8.711c0-0.369 0.298-0.667 0.666-0.667h26.652c0.368 0 0.666 0.299 0.666 0.667v2.798l-1.332 1.266v-2.732c0-0.368-0.298-0.666-0.666-0.666h-23.988c-0.368 0-0.666 0.298-0.666 0.666v16.658c0 0.369 0.298 0.667 0.666 0.667h23.988c0.368 0 0.666-0.299 0.666-0.667v-12.093l1.332-1.262v15.354h-27.985v-19.989zM9.995 17.373c-0.002 0-0.004 0-0.006 0-1.104 0-1.999 0.895-1.999 1.999s0.895 1.999 1.999 1.999c0.54 0 1.030-0.214 1.39-0.562l-0.001 0.001 2.316 1.163c0.269 0.134 0.596 0.071 0.796-0.154l4.923-5.539 4.84 3.627c0.26 0.194 0.623 0.174 0.858-0.049l4.206-3.984v10.164h-22.654v-15.325h22.655v3.325l-4.715 4.465-4.881-3.659c-0.11-0.083-0.249-0.133-0.399-0.133-0.198 0-0.375 0.086-0.497 0.223l-0.001 0.001-4.991 5.616-1.866-0.933c0.014-0.080 0.023-0.161 0.026-0.242-0-1.104-0.895-1.998-1.999-1.999h-0zM10.661 19.372c0 0.368-0.298 0.667-0.667 0.667s-0.667-0.298-0.667-0.667v0c0-0.368 0.298-0.667 0.667-0.667s0.667 0.298 0.667 0.667v0zM14.659 30.033h6.663v0.666c0 0.368-0.298 0.666-0.666 0.666h-5.331c-0.368 0-0.666-0.298-0.666-0.666v0-0.666zM1.333 30.7c0-0.368 0.299-0.666 0.666-0.666h11.328v0.666c0 0 0 0 0 0.001 0 1.104 0.895 1.999 1.999 1.999h5.331c1.104 0 1.999-0.895 1.999-1.999 0-0 0-0 0-0.001v0-0.666h11.326c0.369 0 0.667 0.298 0.667 0.666v2.666c0 0.367-0.299 0.666-0.667 0.666h-31.982c-0.368 0-0.666-0.298-0.666-0.666v0-2.666z"></path>
</symbol>
<symbol id="icon-facebook" viewBox="0 0 40 40">
<path d="M26.662 6.643h3.65v-6.36c-1.547-0.18-3.34-0.283-5.156-0.283-0.057 0-0.115 0-0.172 0l0.009-0c-5.265 0-8.867 3.313-8.867 9.4v5.6h-5.813v7.11h5.81v17.89h7.122v-17.888h5.575l0.885-7.113h-6.463v-4.9c0.002-2.055 0.555-3.46 3.42-3.46z"></path>
</symbol>
<symbol id="icon-instagram" viewBox="0 0 40 40">
<path d="M39.96 11.76c-0.093-2.125-0.438-3.588-0.93-4.853-0.53-1.389-1.317-2.573-2.311-3.546l-0.002-0.002c-0.975-0.99-2.155-1.774-3.473-2.282l-0.067-0.023c-1.275-0.492-2.725-0.838-4.85-0.93-2.145-0.1-2.828-0.125-8.253-0.125-5.433 0-6.113 0.025-8.245 0.117-2.125 0.093-3.585 0.437-4.85 0.93-1.39 0.53-2.575 1.317-3.548 2.311l-0.002 0.002c-0.99 0.975-1.773 2.155-2.282 3.473l-0.023 0.067c-0.492 1.275-0.835 2.725-0.93 4.85-0.1 2.143-0.125 2.825-0.125 8.252 0 5.433 0.025 6.113 0.117 8.245 0.093 2.125 0.437 3.588 0.93 4.853 0.508 1.345 1.298 2.547 2.313 3.55 1 1.013 2.213 1.803 3.54 2.303 1.275 0.492 2.725 0.837 4.852 0.93 2.133 0.095 2.813 0.117 8.245 0.117 5.43 0 6.11-0.025 8.242-0.117 2.125-0.093 3.588-0.438 4.853-0.93 2.695-1.062 4.789-3.155 5.828-5.781l0.024-0.069c0.492-1.275 0.838-2.73 0.93-4.855 0.095-2.133 0.117-2.813 0.117-8.243 0-5.432-0.008-6.112-0.1-8.245zM36.36 28.090c-0.087 1.955-0.415 3.010-0.69 3.712-0.689 1.75-2.048 3.11-3.753 3.784l-0.045 0.016c-0.703 0.273-1.765 0.6-3.71 0.685-2.11 0.095-2.742 0.117-8.080 0.117s-5.977-0.025-8.080-0.117c-1.955-0.085-3.010-0.413-3.713-0.688-0.901-0.336-1.669-0.845-2.296-1.491l-0.001-0.002c-0.646-0.63-1.154-1.397-1.478-2.255l-0.014-0.043c-0.275-0.703-0.6-1.765-0.688-3.71-0.092-2.11-0.117-2.745-0.117-8.080 0-5.337 0.025-5.977 0.117-8.080 0.087-1.955 0.415-3.008 0.688-3.713 0.32-0.867 0.83-1.655 1.5-2.297 0.65-0.662 1.43-1.172 2.3-1.492 0.7-0.275 1.765-0.6 3.71-0.688 2.11-0.092 2.742-0.117 8.080-0.117 5.345 0 5.975 0.025 8.080 0.117 1.953 0.087 3.008 0.415 3.71 0.688 0.867 0.32 1.657 0.83 2.3 1.492 0.663 0.65 1.17 1.43 1.49 2.3 0.275 0.7 0.602 1.765 0.688 3.71 0.095 2.11 0.117 2.742 0.117 8.080s-0.023 5.963-0.115 8.072z"></path>
<path d="M20.075 9.727c-5.578 0.127-10.051 4.679-10.051 10.275s4.473 10.148 10.039 10.275l0.012 0c5.578-0.127 10.051-4.679 10.051-10.275s-4.473-10.148-10.039-10.275l-0.012-0zM20.075 26.67c-3.682 0-6.668-2.985-6.668-6.668s2.985-6.667 6.668-6.667v0c3.682 0 6.668 2.985 6.668 6.667s-2.985 6.668-6.668 6.668v0zM33.155 9.322c0 1.325-1.075 2.4-2.4 2.4s-2.4-1.075-2.4-2.4v0c0-1.325 1.075-2.4 2.4-2.4s2.4 1.075 2.4 2.4v0z"></path>
</symbol>
<symbol id="icon-linkedin" viewBox="0 0 40 40">
<path d="M39.99 40h0.010v-14.675c0-7.175-1.545-12.705-9.935-12.705-4.032 0-6.74 2.215-7.845 4.313h-0.117v-3.64h-7.953v26.707h8.285v-13.225c0-3.483 0.66-6.85 4.97-6.85 4.25 0 4.312 3.975 4.312 7.075v13h8.275zM0.66 13.295h8.293v26.705h-8.293v-26.705zM4.803 0c-2.65 0-4.8 2.15-4.8 4.8s2.15 4.85 4.8 4.85c2.652 0 4.805-2.2 4.805-4.85s-2.157-4.8-4.808-4.8z"></path>
</symbol>
<symbol id="icon-twitter" viewBox="0 0 40 40">
<path d="M40 7.598c-1.375 0.617-2.97 1.072-4.64 1.286l-0.085 0.009c1.7-1.021 2.977-2.598 3.591-4.475l0.016-0.058c-1.497 0.903-3.239 1.592-5.095 1.967l-0.105 0.018c-1.5-1.599-3.626-2.595-5.985-2.595-4.529 0-8.2 3.671-8.2 8.2v0c0 0.65 0.055 1.275 0.19 1.87-6.835-0.345-12.847-3.597-16.869-8.535l-0.033-0.042c-0.703 1.186-1.119 2.614-1.119 4.139 0 2.83 1.432 5.326 3.61 6.803l0.029 0.018c-1.365-0.037-2.636-0.406-3.746-1.029l0.041 0.021v0.090c0.005 3.955 2.796 7.257 6.516 8.048l0.054 0.010c-0.626 0.172-1.344 0.27-2.086 0.27-0.023 0-0.045-0-0.068-0l0.003 0c-0.038 0.001-0.084 0.001-0.129 0.001-0.504 0-0.996-0.051-1.47-0.149l0.047 0.008c1.091 3.28 4.092 5.62 7.652 5.712l0.011 0c-2.768 2.181-6.305 3.498-10.149 3.498-0.006 0-0.013 0-0.019 0h0.001c-0.673 0-1.318-0.030-1.963-0.113 3.533 2.307 7.858 3.68 12.505 3.68 0.026 0 0.053-0 0.079-0h-0.004c15.090 0 23.34-12.5 23.34-23.335 0-0.362-0.013-0.713-0.030-1.060 1.624-1.171 2.988-2.583 4.073-4.199l0.037-0.059z"></path>
</symbol>
<symbol id="icon-person-black" viewBox="0 0 40 40">
<path d="M20 20c3.682 0 6.667-2.985 6.667-6.667s-2.985-6.667-6.667-6.667v0c-3.682 0-6.667 2.985-6.667 6.667s2.985 6.667 6.667 6.667v0zM20 23.333c-4.451 0-13.333 2.233-13.333 6.667v1.667c0 0.916 0.749 1.667 1.667 1.667h23.333c0.916 0 1.667-0.751 1.667-1.667v-1.667c0-4.433-8.884-6.667-13.333-6.667z"></path>
</symbol>
<symbol id="icon-phone-black" viewBox="0 0 30 40">
<path d="M24.543 23.108l-3.063-0.35c-0.084-0.010-0.181-0.016-0.279-0.016-0.664 0-1.265 0.269-1.699 0.705l-2.218 2.218c-3.44-1.775-6.175-4.508-7.902-7.847l-0.048-0.101 2.233-2.232c0.434-0.434 0.703-1.034 0.703-1.697 0-0.099-0.006-0.196-0.017-0.291l0.001 0.011-0.35-3.040c-0.144-1.208-1.162-2.135-2.397-2.135-0.001 0-0.002 0-0.003 0h-2.087c-1.363 0-2.497 1.133-2.412 2.497 0.638 10.3 8.877 18.527 19.165 19.167 1.363 0.083 2.497-1.050 2.497-2.413v-2.087c0-0.004 0-0.009 0-0.013 0-1.226-0.923-2.236-2.112-2.374l-0.011-0.001z"></path>
</symbol>
<symbol id="icon-email-black" viewBox="0 0 30 40">
<path d="M25 10h-20c-1.375 0-2.487 1.125-2.487 2.5l-0.013 15c0 1.375 1.125 2.5 2.5 2.5h20c1.375 0 2.5-1.125 2.5-2.5v-15c0-1.375-1.125-2.5-2.5-2.5zM24.5 15.313l-8.837 5.523c-0.189 0.118-0.418 0.188-0.663 0.188s-0.475-0.070-0.669-0.191l0.005 0.003-8.837-5.523c-0.315-0.188-0.522-0.527-0.522-0.914 0-0.586 0.475-1.062 1.062-1.062 0.218 0 0.421 0.066 0.589 0.178l8.371 5.234 8.375-5.238c0.165-0.11 0.367-0.176 0.585-0.176 0.586 0 1.062 0.475 1.062 1.062 0 0.387-0.207 0.726-0.517 0.912l-0.005 0.003z"></path>
</symbol>
<symbol id="icon-close-black" viewBox="0 0 40 40">
<path d="M40 4.030l-4.030-4.030-15.97 15.97-15.97-15.97-4.030 4.030 15.97 15.97-15.97 15.97 4.030 4.030 15.97-15.97 15.97 15.97 4.030-4.030-15.97-15.97 15.97-15.97z"></path>
</symbol>
<symbol id="icon-icon-send" viewBox="0 0 48 40">
<path d="M48 0l-48 22.5 15.34 4.734 23.66-18.484-17.996 20.232 0.014 0.006-0.018-0.006v11.018l8.602-8.364 10.9 3.364 7.498-35z"></path>
</symbol>
<symbol id="icon-vector" viewBox="0 0 50 40">
<path d="M42.23 1.275c0.824-0.796 1.947-1.287 3.186-1.287 2.508 0 4.546 2.014 4.584 4.514l0 0.004c0.001 0.035 0.002 0.077 0.002 0.118 0 1.206-0.46 2.305-1.215 3.13l0.003-0.004-24.47 30.77c-0.843 0.91-2.044 1.477-3.378 1.477-0.619 0-1.209-0.122-1.748-0.344l0.031 0.011c-0.596-0.247-1.105-0.592-1.53-1.020l-0-0-16.23-16.315c-0.905-0.846-1.469-2.048-1.469-3.381 0-0.627 0.125-1.224 0.351-1.769l-0.011 0.031c0.705-1.709 2.358-2.89 4.287-2.89 0.022 0 0.044 0 0.066 0l-0.003-0c1.297 0.024 2.459 0.584 3.277 1.467l0.003 0.003 12.845 12.91 21.3-27.29c0.041-0.049 0.081-0.093 0.125-0.135l-0.005-0z"></path>
</symbol>
<symbol id="icon-burger" viewBox="0 0 45 40">
<path d="M1.5 5c0-1.657 1.343-3 3-3h36c1.657 0 3 1.343 3 3s-1.343 3-3 3h-36c-1.657 0-3-1.343-3-3v0zM1.5 20c0-1.657 1.343-3 3-3h36c1.657 0 3 1.343 3 3s-1.343 3-3 3h-36c-1.657 0-3-1.343-3-3v0zM1.5 35c0-1.657 1.343-3 3-3h36c1.657 0 3 1.343 3 3s-1.343 3-3 3h-36c-1.657 0-3-1.343-3-3v0z"></path>
</symbol>
</defs>
</svg>
